<svg width="14" height="16" viewBox="0 0 14 16" fill="none" xmlns="http://www.w3.org/2000/svg">
<path fill-rule="evenodd" clip-rule="evenodd" d="M11.0334 2.8274C8.44673 1.72313 5.54965 1.72313 2.96297 2.8274L2.81463 2.89073C2.24247 3.13499 1.9739 3.87981 2.30416 4.48294L2.47604 4.79683C2.54363 4.92026 2.57042 5.06192 2.55259 5.20151L2.38128 6.54228L1.67476 12.7391C1.5855 13.4377 2.10464 13.9992 2.70077 13.9992C3.06896 13.9992 3.36743 14.2977 3.36743 14.6659C3.36743 15.0341 3.06896 15.3325 2.70077 15.3325C1.23948 15.3325 0.171637 14.0045 0.351501 12.575L1.05807 6.37777L1.20257 5.2473L1.13468 5.12332C0.444529 3.86296 0.959718 2.23285 2.29113 1.66446L2.43947 1.60114C5.36055 0.354105 8.63583 0.354105 11.5569 1.60114L11.7052 1.66446C13.0367 2.23285 13.5519 3.86296 12.8617 5.12332L12.7918 5.25089L13.6448 12.5742C13.8251 14.004 12.7572 15.3325 11.2956 15.3325H5.29589C4.9277 15.3325 4.62922 15.0341 4.62922 14.6659C4.62922 14.2977 4.9277 13.9992 5.29589 13.9992H11.2956C11.8917 13.9992 12.4109 13.4377 12.3217 12.7391L12.3207 12.7318L11.4429 5.19414C11.4269 5.05688 11.454 4.91804 11.5203 4.79683L11.6922 4.48294C12.0225 3.87981 11.7539 3.13499 11.1817 2.89073L11.0334 2.8274Z" fill="#1C1C1C"/>
<path d="M4.99966 6.66517C4.99966 7.03336 4.70118 7.33184 4.33299 7.33184C3.9648 7.33184 3.66632 7.03336 3.66632 6.66517C3.66632 6.29698 3.9648 5.9985 4.33299 5.9985C4.70118 5.9985 4.99966 6.29698 4.99966 6.66517Z" fill="#1C1C1C"/>
<path d="M6.33282 4.66545C6.33282 5.03364 6.03434 5.33211 5.66615 5.33211C5.29796 5.33211 4.99949 5.03364 4.99949 4.66545C4.99949 4.29726 5.29796 3.99878 5.66615 3.99878C6.03434 3.99878 6.33282 4.29726 6.33282 4.66545Z" fill="#1C1C1C"/>
<path d="M8.33087 6.66517C8.33087 7.03336 8.03239 7.33184 7.6642 7.33184C7.29601 7.33184 6.99753 7.03336 6.99753 6.66517C6.99753 6.29698 7.29601 5.9985 7.6642 5.9985C8.03239 5.9985 8.33087 6.29698 8.33087 6.66517Z" fill="#1C1C1C"/>
<path d="M10.3323 4.66545C10.3323 5.03364 10.0338 5.33211 9.66564 5.33211C9.29745 5.33211 8.99897 5.03364 8.99897 4.66545C8.99897 4.29726 9.29745 3.99878 9.66564 3.99878C10.0338 3.99878 10.3323 4.29726 10.3323 4.66545Z" fill="#1C1C1C"/>
<path d="M6.9977 9.3332C6.9977 9.70139 6.69923 9.99987 6.33104 9.99987C5.96285 9.99987 5.66437 9.70139 5.66437 9.3332C5.66437 8.96501 5.96285 8.66653 6.33104 8.66653C6.69923 8.66653 6.9977 8.96501 6.9977 9.3332Z" fill="#1C1C1C"/>
<path d="M10.3323 8.00004C10.3323 8.36823 10.0338 8.66671 9.66564 8.66671C9.29745 8.66671 8.99897 8.36823 8.99897 8.00004C8.99897 7.63185 9.29745 7.33337 9.66564 7.33337C10.0338 7.33337 10.3323 7.63185 10.3323 8.00004Z" fill="#1C1C1C"/>
</svg>
