<svg width="12" height="14" viewBox="0 0 12 14" fill="none" xmlns="http://www.w3.org/2000/svg">
<path fill-rule="evenodd" clip-rule="evenodd" d="M2.66667 1.66667C2.29848 1.66667 2.00001 1.96515 2.00001 2.33334V11.7045C2.29961 11.4905 2.71598 11.5599 2.92999 11.8595C3.14399 12.1591 3.0746 12.5755 2.77499 12.7895C1.8925 13.4199 0.666672 12.789 0.666672 11.7045V2.33334C0.666672 1.22877 1.5621 0.333336 2.66667 0.333336H9.33334C10.4379 0.333336 11.3333 1.22877 11.3333 2.33334V11.7045C11.3333 12.789 10.1075 13.4199 9.22502 12.7895L5.98695 10.4766L4.86981 11.2214C4.56345 11.4256 4.14954 11.3428 3.9453 11.0365C3.74107 10.7301 3.82385 10.3162 4.1302 10.112L5.63021 9.11197C5.86066 8.95833 6.16211 8.96319 6.3875 9.12418L10 11.7045V2.33334C10 1.96515 9.70153 1.66667 9.33334 1.66667H2.66667Z" fill="#1C1C1C"/>
</svg>
