<svg width="18" height="14" viewBox="0 0 18 14" fill="none" xmlns="http://www.w3.org/2000/svg">
<path fill-rule="evenodd" clip-rule="evenodd" d="M8.59967 0.244108C8.92511 0.569545 8.92511 1.09718 8.59967 1.42262L3.35559 6.6667L8.59967 11.9108C8.92511 12.2362 8.92511 12.7638 8.59967 13.0893C8.27424 13.4147 7.7466 13.4147 7.42116 13.0893L0.998572 6.6667L7.42116 0.244108C7.7466 -0.0813287 8.27424 -0.0813287 8.59967 0.244108Z" fill="#1C1C1C"/>
<path fill-rule="evenodd" clip-rule="evenodd" d="M17.1836 6.66735C17.1836 6.20711 16.8105 5.83401 16.3503 5.83401H6.35026C5.89002 5.83401 5.51692 6.20711 5.51692 6.66735C5.51692 7.12759 5.89002 7.50068 6.35026 7.50068H16.3503C16.8105 7.50068 17.1836 7.12759 17.1836 6.66735Z" fill="#1C1C1C"/>
</svg>
