<svg width="12" height="16" viewBox="0 0 12 16" fill="none" xmlns="http://www.w3.org/2000/svg">
<path fill-rule="evenodd" clip-rule="evenodd" d="M3.34476 2.71998C3.68346 2.86436 3.84098 3.25598 3.6966 3.59468L2 7.57468V13.3333C2 14.0696 2.59695 14.6666 3.33333 14.6666H8.66666C9.40304 14.6666 10 14.0696 10 13.3332V7.57468L8.47614 3.99992H6C5.63181 3.99992 5.33333 3.70144 5.33333 3.33325C5.33333 2.96506 5.63181 2.66658 6 2.66658H8.91666C9.18382 2.66658 9.42517 2.82607 9.52993 3.07182L11.2799 7.17709C11.3152 7.25974 11.3333 7.34866 11.3333 7.43851V13.3332C11.3333 14.806 10.1394 15.9999 8.66666 15.9999H3.33333C1.86057 15.9999 0.666664 14.806 0.666664 13.3333V7.43851C0.666664 7.34866 0.684827 7.25974 0.72006 7.17709L2.47006 3.07182C2.61444 2.73312 3.00606 2.5756 3.34476 2.71998Z" fill="#1C1C1C"/>
<path fill-rule="evenodd" clip-rule="evenodd" d="M3.33333 8.66668C3.33333 7.9303 3.93028 7.33334 4.66666 7.33334H8C8.36819 7.33334 8.66666 7.63182 8.66666 8.00001C8.66666 8.3682 8.36819 8.66668 8 8.66668H4.66666V10.6667H10C10.3682 10.6667 10.6667 10.9652 10.6667 11.3333C10.6667 11.7015 10.3682 12 10 12H4.66666C3.93028 12 3.33333 11.4031 3.33333 10.6667V8.66668Z" fill="#1C1C1C"/>
<path fill-rule="evenodd" clip-rule="evenodd" d="M2.66666 0.666667C2.66666 0.298477 2.96514 0 3.33333 0H8.66666C9.03485 0 9.33333 0.298477 9.33333 0.666667C9.33333 1.03486 9.03485 1.33333 8.66666 1.33333H3.33333C2.96514 1.33333 2.66666 1.03486 2.66666 0.666667Z" fill="#1C1C1C"/>
</svg>
