<svg width="16" height="12" viewBox="0 0 16 12" fill="none" xmlns="http://www.w3.org/2000/svg">
<path fill-rule="evenodd" clip-rule="evenodd" d="M0.862254 6.86238C1.1226 6.60203 1.54471 6.60203 1.80506 6.86238L4.66699 9.72431L7.52892 6.86238C7.78927 6.60203 8.21138 6.60203 8.47173 6.86238C8.73208 7.12273 8.73208 7.54484 8.47173 7.80519L4.66699 11.6099L0.862254 7.80519C0.601905 7.54484 0.601905 7.12273 0.862254 6.86238Z" fill="#1C1C1C"/>
<path fill-rule="evenodd" clip-rule="evenodd" d="M4.66642 0.000244111C4.29823 0.000244128 3.99976 0.298721 3.99976 0.666911L3.99976 7.33358C3.99976 7.70177 4.29823 8.00025 4.66642 8.00025C5.03461 8.00025 5.33309 7.70177 5.33309 7.33358L5.33309 0.666911C5.33309 0.298721 5.03461 0.000244095 4.66642 0.000244111Z" fill="#1C1C1C"/>
<path fill-rule="evenodd" clip-rule="evenodd" d="M16 10.6654C16 11.0336 15.7015 11.332 15.3333 11.332L10.6667 11.332C10.2985 11.332 10 11.0336 10 10.6654C10 10.2972 10.2985 9.9987 10.6667 9.9987L15.3333 9.9987C15.7015 9.9987 16 10.2972 16 10.6654Z" fill="#1C1C1C"/>
<path fill-rule="evenodd" clip-rule="evenodd" d="M14.668 7.3326C14.668 7.70079 14.3695 7.99927 14.0013 7.99927L10.668 7.99927C10.2998 7.99927 10.0013 7.70079 10.0013 7.3326C10.0013 6.96441 10.2998 6.66593 10.668 6.66593L14.0013 6.66593C14.3695 6.66593 14.668 6.96441 14.668 7.3326Z" fill="#1C1C1C"/>
<path fill-rule="evenodd" clip-rule="evenodd" d="M13.3333 3.99984C13.3333 4.36803 13.0348 4.6665 12.6666 4.6665L10.6666 4.6665C10.2984 4.6665 9.99992 4.36803 9.99992 3.99984C9.99992 3.63165 10.2984 3.33317 10.6666 3.33317L12.6666 3.33317C13.0348 3.33317 13.3333 3.63165 13.3333 3.99984Z" fill="#1C1C1C"/>
<path fill-rule="evenodd" clip-rule="evenodd" d="M12.0012 0.66573C12.0012 1.03392 11.7027 1.3324 11.3346 1.3324L10.6679 1.3324C10.2997 1.3324 10.0012 1.03392 10.0012 0.66573C10.0012 0.29754 10.2997 -0.000937075 10.6679 -0.000937107L11.3346 -0.000937165C11.7027 -0.000937197 12.0012 0.29754 12.0012 0.66573Z" fill="#1C1C1C"/>
</svg>
