<svg width="20" height="20" viewBox="0 0 20 20" fill="none" xmlns="http://www.w3.org/2000/svg">
<path fill-rule="evenodd" clip-rule="evenodd" d="M16.803 3.19449C17.0634 3.45484 17.0634 3.87695 16.803 4.1373L15.803 5.1373C15.5427 5.39765 15.1206 5.39765 14.8602 5.1373C14.5999 4.87695 14.5999 4.45484 14.8602 4.19449L15.8602 3.19449C16.1206 2.93414 16.5427 2.93414 16.803 3.19449Z" fill="#1C1C1C"/>
<path fill-rule="evenodd" clip-rule="evenodd" d="M18.999 6.33319C18.999 6.70138 18.7005 6.99986 18.3323 6.99986L16.3323 6.99986C15.9641 6.99986 15.6657 6.70138 15.6657 6.33319C15.6657 5.965 15.9641 5.66652 16.3323 5.66652L18.3323 5.66652C18.7005 5.66652 18.999 5.965 18.999 6.33319Z" fill="#1C1C1C"/>
<path fill-rule="evenodd" clip-rule="evenodd" d="M13.6653 0.99947C14.0335 0.99947 14.332 1.29795 14.332 1.66614L14.332 3.66614C14.332 4.03433 14.0335 4.3328 13.6653 4.3328C13.2971 4.3328 12.9986 4.03433 12.9986 3.66614L12.9986 1.66614C12.9986 1.29795 13.2971 0.99947 13.6653 0.99947Z" fill="#1C1C1C"/>
<path fill-rule="evenodd" clip-rule="evenodd" d="M15.4777 7.77685C15.813 9.70083 15.0203 11.7028 13.5256 12.9761L13.5201 12.9807L12.9309 13.4717C12.9304 13.4721 12.93 13.4724 12.9295 13.4728C11.6716 14.5319 10.2439 15.3787 8.71391 15.9725C8.37067 16.1058 7.98441 15.9355 7.85118 15.5923C7.71796 15.249 7.88821 14.8628 8.23145 14.7295C9.62468 14.1888 10.9258 13.4171 12.072 12.4518L12.0746 12.4496L12.6636 11.9588C13.8274 10.9658 14.4143 9.42318 14.1628 7.99793C14.1616 7.99076 14.1604 7.98357 14.1594 7.97636C14.004 6.8888 13.1495 6.03429 12.0619 5.87892C12.0547 5.87789 12.0475 5.87674 12.0404 5.87548C10.6151 5.62396 9.0725 6.21086 8.07949 7.37471L7.58651 7.96629C6.08272 9.75202 5.04957 11.9124 4.62637 14.2105C4.50383 14.9655 5.16578 15.5553 5.80065 15.4173C6.16043 15.339 6.5155 15.5673 6.59372 15.9271C6.67193 16.2869 6.44367 16.6419 6.08389 16.7202C4.45154 17.075 3.04366 15.5964 3.31199 13.9864L3.31388 13.9756C3.77898 11.4434 4.91488 9.06933 6.5655 7.10876C6.56587 7.10832 6.56624 7.10788 6.56662 7.10743L7.06221 6.51271C8.33552 5.01796 10.3375 4.22525 12.2615 4.56057C13.9268 4.80337 15.2349 6.11151 15.4777 7.77685Z" fill="#1C1C1C"/>
<path fill-rule="evenodd" clip-rule="evenodd" d="M8.52613 5.86249C8.78648 5.60214 9.20859 5.60214 9.46894 5.86249L11.4689 7.86249C11.7293 8.12284 11.7293 8.54495 11.4689 8.8053C11.2086 9.06565 10.7865 9.06565 10.5261 8.8053L8.52613 6.8053C8.26578 6.54495 8.26578 6.12284 8.52613 5.86249Z" fill="#1C1C1C"/>
<path fill-rule="evenodd" clip-rule="evenodd" d="M9.85929 10.5286C10.1196 10.2682 10.5418 10.2682 10.8021 10.5286L11.4688 11.1952C11.7291 11.4556 11.7291 11.8777 11.4688 12.138C11.2084 12.3984 10.7863 12.3984 10.526 12.138L9.85929 11.4714C9.59894 11.211 9.59894 10.7889 9.85929 10.5286Z" fill="#1C1C1C"/>
<path fill-rule="evenodd" clip-rule="evenodd" d="M5.19492 9.1954C5.45527 8.93505 5.87738 8.93505 6.13773 9.1954L8.13773 11.1954C8.39808 11.4558 8.39808 11.8779 8.13773 12.1382C7.87738 12.3986 7.45527 12.3986 7.19492 12.1382L5.19492 10.1382C4.93457 9.87786 4.93457 9.45575 5.19492 9.1954Z" fill="#1C1C1C"/>
</svg>
